<svg width="306" height="57" viewBox="0 0 306 57" fill="none" xmlns="http://www.w3.org/2000/svg">
<path d="M88.2712 14.2256V34.6804H84.0139V25.8697H75.0058V34.6804H70.7485V14.2256H75.0058V22.9093H84.0139V14.2256H88.2712Z" fill="white"/>
<path d="M110.078 14.2256V34.6804H107.893C107.564 34.6804 107.286 34.6287 107.061 34.5253C106.835 34.4125 106.614 34.2246 106.398 33.9614L96.2061 20.9921C96.2343 21.3211 96.2531 21.6453 96.2625 21.9648C96.2813 22.2844 96.2907 22.5804 96.2907 22.853V34.6804H92.5549V14.2256H94.7823C94.9608 14.2256 95.1112 14.235 95.2334 14.2537C95.3649 14.2631 95.4824 14.296 95.5858 14.3524C95.6892 14.3994 95.7879 14.4652 95.8818 14.5498C95.9758 14.6344 96.0792 14.7471 96.192 14.8881L106.455 27.9138C106.417 27.5567 106.389 27.2136 106.37 26.8847C106.351 26.5464 106.342 26.2269 106.342 25.9261V14.2256H110.078Z" fill="white"/>
<path d="M124.314 24.2627H131.334V32.7068C130.291 33.468 129.177 34.0272 127.993 34.3844C126.818 34.7321 125.573 34.9059 124.257 34.9059C122.575 34.9059 121.053 34.6475 119.69 34.1306C118.327 33.6043 117.162 32.876 116.194 31.9456C115.226 31.0152 114.479 29.9109 113.953 28.6328C113.426 27.3546 113.163 25.959 113.163 24.4459C113.163 22.914 113.412 21.509 113.91 20.2309C114.418 18.9528 115.137 17.8532 116.067 16.9322C116.997 16.0112 118.121 15.2922 119.436 14.7753C120.761 14.2584 122.242 14 123.877 14C124.723 14 125.512 14.0705 126.245 14.2115C126.978 14.343 127.655 14.531 128.275 14.7753C128.895 15.0103 129.464 15.2922 129.981 15.6212C130.498 15.9501 130.968 16.3119 131.391 16.7066L130.164 18.5956C129.976 18.8964 129.732 19.0796 129.431 19.1454C129.13 19.2112 128.801 19.136 128.444 18.9199C128.106 18.7131 127.772 18.5299 127.443 18.3701C127.124 18.2009 126.781 18.0553 126.414 17.9331C126.048 17.8109 125.648 17.7169 125.216 17.6511C124.784 17.5854 124.286 17.5525 123.722 17.5525C122.773 17.5525 121.913 17.7169 121.142 18.0459C120.371 18.3748 119.714 18.84 119.168 19.4415C118.633 20.0429 118.219 20.7666 117.928 21.6124C117.637 22.4582 117.491 23.4027 117.491 24.4459C117.491 25.5737 117.651 26.584 117.97 27.4768C118.29 28.3602 118.741 29.1074 119.323 29.7182C119.906 30.3291 120.602 30.7943 121.41 31.1138C122.227 31.4334 123.134 31.5931 124.131 31.5931C124.807 31.5931 125.409 31.5273 125.935 31.3958C126.471 31.2548 126.992 31.0668 127.5 30.8319V27.3922H125.188C124.915 27.3922 124.699 27.3217 124.539 27.1808C124.389 27.0304 124.314 26.8424 124.314 26.6169V24.2627Z" fill="white"/>
<path d="M145.739 34.6804H141.482V14.2256H145.739V34.6804Z" fill="white"/>
<path d="M167.54 14.2256V34.6804H165.355C165.026 34.6804 164.748 34.6287 164.523 34.5253C164.297 34.4125 164.076 34.2246 163.86 33.9614L153.668 20.9921C153.696 21.3211 153.715 21.6453 153.725 21.9648C153.743 22.2844 153.753 22.5804 153.753 22.853V34.6804H150.017V14.2256H152.244C152.423 14.2256 152.573 14.235 152.695 14.2537C152.827 14.2631 152.944 14.296 153.048 14.3524C153.151 14.3994 153.25 14.4652 153.344 14.5498C153.438 14.6344 153.541 14.7471 153.654 14.8881L163.917 27.9138C163.879 27.5567 163.851 27.2136 163.832 26.8847C163.813 26.5464 163.804 26.2269 163.804 25.9261V14.2256H167.54Z" fill="white"/>
<path d="M186.301 17.637H180.324V34.6804H176.081V17.637H170.104V14.2256H186.301V17.637Z" fill="white"/>
<path d="M193.096 17.5384V22.7966H199.919V25.9966H193.096V31.3676H201.865V34.6804H188.839V14.2256H201.865V17.5384H193.096Z" fill="white"/>
<path d="M211.429 23.9102C212.115 23.9102 212.707 23.8257 213.205 23.6565C213.703 23.4779 214.112 23.2383 214.431 22.9375C214.751 22.6274 214.986 22.2656 215.136 21.8521C215.287 21.4386 215.362 20.9874 215.362 20.4987C215.362 19.5307 215.037 18.7789 214.389 18.2432C213.75 17.7075 212.773 17.4397 211.457 17.4397H209.258V23.9102H211.429ZM221.339 34.6804H217.519C216.804 34.6804 216.287 34.4079 215.968 33.8628L212.077 27.5896C211.917 27.3452 211.739 27.1667 211.541 27.0539C211.353 26.9411 211.072 26.8847 210.696 26.8847H209.258V34.6804H205.029V14.2256H211.457C212.885 14.2256 214.107 14.3759 215.122 14.6767C216.137 14.968 216.969 15.3768 217.617 15.9031C218.266 16.4294 218.74 17.0591 219.041 17.7921C219.342 18.5158 219.492 19.3146 219.492 20.1886C219.492 20.8653 219.393 21.509 219.196 22.1199C219.008 22.7214 218.731 23.2712 218.364 23.7693C217.998 24.2674 217.547 24.7091 217.011 25.0944C216.475 25.4797 215.865 25.7898 215.178 26.0248C215.451 26.1752 215.705 26.3584 215.94 26.5746C216.175 26.7813 216.386 27.0304 216.574 27.3217L221.339 34.6804Z" fill="white"/>
<path d="M240.861 14.2256V34.6804H238.676C238.347 34.6804 238.07 34.6287 237.844 34.5253C237.619 34.4125 237.398 34.2246 237.182 33.9614L226.989 20.9921C227.018 21.3211 227.036 21.6453 227.046 21.9648C227.065 22.2844 227.074 22.5804 227.074 22.853V34.6804H223.338V14.2256H225.566C225.744 14.2256 225.895 14.235 226.017 14.2537C226.148 14.2631 226.266 14.296 226.369 14.3524C226.472 14.3994 226.571 14.4652 226.665 14.5498C226.759 14.6344 226.863 14.7471 226.975 14.8881L237.238 27.9138C237.2 27.5567 237.172 27.2136 237.153 26.8847C237.135 26.5464 237.125 26.2269 237.125 25.9261V14.2256H240.861Z" fill="white"/>
<path d="M256.225 18.1445C256.093 18.3607 255.957 18.5205 255.816 18.6238C255.685 18.7178 255.511 18.7648 255.295 18.7648C255.088 18.7648 254.862 18.6943 254.618 18.5534C254.383 18.403 254.106 18.2432 253.786 18.0741C253.467 17.9049 253.1 17.7498 252.687 17.6088C252.273 17.4585 251.789 17.3833 251.235 17.3833C250.257 17.3833 249.524 17.6041 249.035 18.0459C248.547 18.4782 248.302 19.0467 248.302 19.7516C248.302 20.2027 248.434 20.5786 248.697 20.8794C248.97 21.1707 249.322 21.4245 249.754 21.6406C250.196 21.8568 250.694 22.0494 251.249 22.2186C251.803 22.3878 252.372 22.5757 252.954 22.7825C253.537 22.9798 254.106 23.2148 254.66 23.4873C255.215 23.7599 255.708 24.1029 256.14 24.5164C256.582 24.9299 256.934 25.4374 257.198 26.0389C257.47 26.631 257.606 27.3546 257.606 28.2098C257.606 29.1402 257.442 30.0143 257.113 30.8319C256.794 31.6401 256.328 32.3497 255.717 32.9606C255.107 33.562 254.35 34.0366 253.448 34.3844C252.555 34.7321 251.54 34.9059 250.403 34.9059C249.754 34.9059 249.106 34.8402 248.457 34.7086C247.818 34.577 247.198 34.3938 246.597 34.1588C246.005 33.9238 245.445 33.6419 244.919 33.313C244.393 32.984 243.932 32.6175 243.538 32.2134L244.778 30.2116C244.881 30.0613 245.018 29.9391 245.187 29.8451C245.356 29.7417 245.535 29.69 245.723 29.69C245.976 29.69 246.244 29.784 246.526 29.972C246.808 30.1599 247.132 30.3667 247.499 30.5922C247.865 30.8178 248.288 31.0246 248.768 31.2125C249.256 31.4005 249.839 31.4945 250.516 31.4945C251.502 31.4945 252.264 31.2689 252.799 30.8178C253.344 30.3667 253.617 29.6947 253.617 28.8019C253.617 28.285 253.481 27.8668 253.208 27.5473C252.945 27.2277 252.597 26.9599 252.165 26.7437C251.733 26.5276 251.239 26.3443 250.685 26.194C250.13 26.0342 249.562 25.8603 248.979 25.6724C248.396 25.4844 247.828 25.2589 247.273 24.9957C246.719 24.7326 246.225 24.3848 245.793 23.9525C245.361 23.5202 245.008 22.9845 244.736 22.3455C244.473 21.7064 244.341 20.9123 244.341 19.9631C244.341 19.2018 244.491 18.4641 244.792 17.7498C245.093 17.0356 245.535 16.4012 246.117 15.8467C246.7 15.2922 247.414 14.8458 248.26 14.5075C249.115 14.1692 250.093 14 251.192 14C252.423 14 253.561 14.1927 254.604 14.578C255.656 14.9539 256.544 15.4802 257.268 16.1569L256.225 18.1445Z" fill="white"/>
<path d="M278.196 14.2256V34.6804H273.939V25.8697H264.931V34.6804H260.673V14.2256H264.931V22.9093H273.939V14.2256H278.196Z" fill="white"/>
<path d="M286.737 34.6804H282.48V14.2256H286.737V34.6804Z" fill="white"/>
<path d="M297.923 24.4036C299.248 24.4036 300.216 24.0841 300.827 23.445C301.447 22.806 301.757 21.9319 301.757 20.823C301.757 20.3155 301.677 19.855 301.517 19.4415C301.367 19.0186 301.132 18.6614 300.813 18.3701C300.502 18.0694 300.108 17.8391 299.628 17.6793C299.149 17.5196 298.581 17.4397 297.923 17.4397H295.244V24.4036H297.923ZM297.923 14.2256C299.323 14.2256 300.531 14.39 301.546 14.719C302.57 15.0479 303.411 15.5084 304.069 16.1005C304.727 16.6831 305.211 17.3786 305.521 18.1868C305.841 18.9951 306 19.8738 306 20.823C306 21.8286 305.836 22.7496 305.507 23.586C305.178 24.4224 304.68 25.1414 304.013 25.7429C303.345 26.3443 302.504 26.8142 301.489 27.1526C300.474 27.4815 299.285 27.646 297.923 27.646H295.244V34.6804H291.015V14.2256H297.923Z" fill="white"/>
<rect width="57" height="57" fill="white"/>
<path d="M23.5 14H14V42H23.5" stroke="#00AEFF" stroke-width="5"/>
<path d="M34 14H43.5V42H34" stroke="#00AEFF" stroke-width="5"/>
</svg>
