<svg xmlns="http://www.w3.org/2000/svg" width="10" height="3" viewBox="0 0 10 3">
  <defs>
    <linearGradient id="gloopro-logo-a" x1="25.869%" x2="74.113%" y1="36.081%" y2="63.934%">
      <stop offset="0%" stop-color="#AB0132"/>
      <stop offset="100%" stop-color="#DD1836"/>
    </linearGradient>
    <linearGradient id="gloopro-logo-b" x1="25.867%" x2="74.135%" y1="36.064%" y2="63.943%">
      <stop offset="0%" stop-color="#15734E"/>
      <stop offset="100%" stop-color="#4E9020"/>
    </linearGradient>
  </defs>
  <g fill="none" fill-rule="evenodd" transform="translate(.628 .862)">
    <path fill="url(#gloopro-logo-a)" d="M0.502995698,0.726993783 C0.613994749,0.473995946 0.865992594,0.297997451 1.15899009,0.297997451 C1.45198758,0.297997451 1.70398543,0.473995946 1.81598447,0.726993783 L1.81598447,0.726993783 L2.07498225,0.576995065 C1.91098366,0.235997982 1.56298663,0 1.15899009,0 C0.789993244,0 0.465996015,0.197998307 0.288997528,0.493995775 L0.288997528,0.149998717 L0,0.149998717 L0,0.726993783 L0,1.01499132 L0.865992594,1.01499132 L0.865992594,0.726993783 L0.502995698,0.726993783 Z"/>
    <path fill="url(#gloopro-logo-b)" d="M1.81598447,1.30398885 C1.70398543,1.55598669 1.45198758,1.73198519 1.15899009,1.73198519 C0.865992594,1.73198519 0.613994749,1.55598669 0.502995698,1.30398885 L0.502995698,1.30398885 L0.243997913,1.45298757 C0.406996519,1.79398466 0.755993535,2.02998264 1.15899009,2.02998264 C1.52898692,2.02998264 1.85198416,1.83198433 2.02998264,1.53698686 L2.02998264,1.88098391 L2.31798018,1.88098391 L2.31798018,1.30398885 L2.31798018,1.01499132 L1.45298757,1.01499132 L1.45298757,1.30398885 L1.81598447,1.30398885 Z"/>
    <path fill="#3E882D" d="M5.25895502,1.15399013 C5.25895502,1.38998811 5.06795666,1.58098648 4.83195868,1.58098648 C4.59596069,1.58098648 4.40396234,1.38998811 4.40396234,1.15399013 C4.40396234,0.917992149 4.59596069,0.725993791 4.83195868,0.725993791 C5.06795666,0.725993791 5.25895502,0.917992149 5.25895502,1.15399013 Z M4.16796435,0.422996382 L4.30896315,0.422996382 L4.30896315,1.56598661 L4.16796435,1.56598661 L4.16796435,0.422996382 Z M7.18293857,0.736993697 L7.32693734,0.736993697 L7.32693734,0.833992868 C7.4019367,0.766993441 7.50193584,0.725993791 7.60993492,0.725993791 L7.64493462,0.725993791 L7.64493462,0.865992594 L7.60993492,0.865992594 C7.46893612,0.865992594 7.35193712,0.96699173 7.32693734,1.10099058 L7.32693734,1.56598661 L7.18293857,1.56598661 L7.18293857,1.18798984 L7.18293857,1.15399013 L7.18293857,0.736993697 Z M6.25994646,0.739993671 L6.40394523,0.739993671 L6.40394523,0.840992808 C6.47994458,0.771993398 6.58094372,0.728993766 6.69194277,0.728993766 C6.92794075,0.728993766 7.11993911,0.920992123 7.11993911,1.15699011 C7.11993911,1.39298809 6.92794075,1.58398645 6.69194277,1.58398645 C6.58094372,1.58398645 6.47994458,1.54198681 6.40394523,1.47198741 L6.40394523,1.88398389 L6.25994646,1.88398389 L6.25994646,0.739993671 Z M4.07196518,0.935991995 L4.07196518,1.13099033 L4.07196518,1.34598849 L4.07196518,1.37798822 L4.06296525,1.38798813 C4.06096527,1.38998811 4.05896529,1.3919881 4.0569653,1.39398808 L4.0569653,1.39398808 C4.05596531,1.39498807 4.05396533,1.39698805 4.05196535,1.39898804 L4.05196535,1.39998803 C4.04996536,1.40098802 4.04796538,1.402988 4.04696539,1.40498798 L4.0459654,1.40498798 C4.04496541,1.40698797 4.04296542,1.40798796 4.04096544,1.40998794 L4.04096544,1.40998794 C4.03896546,1.41198792 4.03796547,1.41398791 4.03596548,1.4149879 L4.03596548,1.4149879 L4.03496549,1.41598789 C4.0339655,1.41698788 4.03196552,1.41898786 4.03096553,1.41998786 L4.02996553,1.42098785 L4.02996553,1.42098785 L4.02996553,1.42098785 C4.02796555,1.42298783 4.02696556,1.42398782 4.02496558,1.4259878 L4.02496558,1.4259878 L4.02396559,1.4259878 C4.02296559,1.4269878 4.02096561,1.42898778 4.01996562,1.42998777 L4.01796564,1.43198775 C4.01696565,1.43298774 4.01496566,1.43398774 4.01396567,1.43498773 L4.01296568,1.43598772 C4.0109657,1.4379877 4.00996571,1.43898769 4.00796572,1.43998768 L4.00696573,1.44098768 L4.00296577,1.44498764 L4.00096578,1.44598763 L3.99696582,1.4499876 L3.99496583,1.45098759 L3.99096587,1.45398757 L3.98796589,1.45598755 L3.98496592,1.45898752 L3.98196595,1.46098751 L3.97996596,1.46298749 L3.97696599,1.46498747 L3.97496601,1.46598746 L3.97396601,1.46698745 C3.97296602,1.46798745 3.97196603,1.46898744 3.96996605,1.46898744 L3.96796607,1.47098742 L3.96796607,1.47098742 L3.9639661,1.47398739 L3.96196612,1.47498739 L3.96096613,1.47598738 C3.95996613,1.47698737 3.95896614,1.47798736 3.95696616,1.47798736 L3.95496618,1.47998734 L3.95496618,1.47998734 C3.95396618,1.48098733 3.9519662,1.48198733 3.95096621,1.48298732 L3.95096621,1.48298732 L3.94796624,1.48398731 C3.94696624,1.4849873 3.94596625,1.48598729 3.94396627,1.48698728 L3.94396627,1.48698728 C3.85196706,1.54498679 3.74396798,1.57698651 3.63196894,1.57698651 C3.30997169,1.57698651 3.04797393,1.31598875 3.04797393,0.992991508 C3.04797393,0.670994262 3.30997169,0.408996502 3.63196894,0.408996502 C3.7879676,0.408996502 3.93596634,0.469995981 4.04496541,0.57999504 L4.06996519,0.604994826 L3.97096604,0.702993988 L3.94696624,0.678994193 C3.86296696,0.594994911 3.75096792,0.547995313 3.63196894,0.547995313 C3.38697103,0.547995313 3.18797274,0.747993603 3.18797274,0.992991508 C3.18797274,1.2389894 3.38697103,1.4379877 3.63196894,1.4379877 C3.74396798,1.4379877 3.84996707,1.39598806 3.92996639,1.32298869 L3.92996639,1.07699079 L3.54996964,1.07699079 L3.54996964,0.935991995 L3.92996639,0.935991995 L4.07196518,0.935991995 L4.07196518,0.935991995 Z M8.0099315,0.728993766 C8.24592948,0.728993766 8.43692785,0.919992132 8.43692785,1.15599011 C8.43692785,1.3919881 8.24592948,1.58298646 8.0099315,1.58298646 C7.77393352,1.58298646 7.58193516,1.3919881 7.58193516,1.15599011 C7.58193516,0.919992132 7.77393352,0.728993766 8.0099315,0.728993766 Z M8.29692904,1.15599011 C8.29692904,0.996991474 8.16893014,0.867992577 8.0099315,0.867992577 C7.85093286,0.867992577 7.72193396,0.996991474 7.72193396,1.15599011 C7.72193396,1.31498875 7.85093286,1.44398765 8.0099315,1.44398765 C8.16893014,1.44398765 8.29692904,1.31498875 8.29692904,1.15599011 Z M6.97994031,1.15699011 C6.97994031,0.997991465 6.85094141,0.868992568 6.69194277,0.868992568 C6.53294413,0.868992568 6.40394523,0.997991465 6.40394523,1.15699011 C6.40394523,1.31598875 6.53294413,1.44398765 6.69194277,1.44398765 C6.85094141,1.44398765 6.97994031,1.31598875 6.97994031,1.15699011 Z M5.33595437,1.15599011 C5.33595437,0.919992132 5.52695273,0.728993766 5.76295071,0.728993766 C5.9989487,0.728993766 6.18994706,0.919992132 6.18994706,1.15599011 C6.18994706,1.3919881 5.9989487,1.58298646 5.76295071,1.58298646 C5.52695273,1.58298646 5.33595437,1.3919881 5.33595437,1.15599011 Z M6.05094825,1.15599011 C6.05094825,0.996991474 5.92194935,0.867992577 5.76295071,0.867992577 C5.60395207,0.867992577 5.47495318,0.996991474 5.47495318,1.15599011 C5.47495318,1.31498875 5.60395207,1.44398765 5.76295071,1.44398765 C5.92194935,1.44398765 6.05094825,1.31498875 6.05094825,1.15599011 Z M4.54396114,1.15399013 C4.54396114,1.31298877 4.67296004,1.44098768 4.83195868,1.44098768 C4.99095732,1.44098768 5.11895622,1.31298877 5.11895622,1.15399013 C5.11895622,0.994991491 4.99095732,0.865992594 4.83195868,0.865992594 C4.67296004,0.865992594 4.54396114,0.994991491 4.54396114,1.15399013 Z"/>
  </g>
</svg>
