<svg width="115" height="158" viewBox="0 0 115 158" fill="none" xmlns="http://www.w3.org/2000/svg">
<g clip-path="url(#clip0)">
<path d="M61.0684 97.7837L83.7352 158L90.1902 139.82L105.822 149.439L83.1551 89.2073L61.0684 97.7837Z" fill="#E69924"/>
<path d="M39.8148 89.2375L19.7656 150.405L36.1262 140.485L42.2094 157.985L62.2436 96.8175L39.8148 89.2375Z" fill="#E69924"/>
<path d="M115 55.672C115 61.2588 101.272 64.5505 99.6508 69.5937C98.0296 74.6369 107.087 85.6594 104.009 89.993C100.93 94.3265 87.8563 88.8907 83.5431 92.1069C79.2298 95.323 80.4048 109.532 75.2735 111.223C70.1423 112.914 62.9882 100.653 57.4256 100.653C51.863 100.653 44.6049 112.823 39.6521 111.223C34.6993 109.622 35.6958 95.2475 31.4569 92.1069C27.2181 88.9662 14.1296 94.3718 10.9765 89.993C7.82333 85.6141 17.0001 74.803 15.3343 69.5937C13.6685 64.3844 0 61.2588 0 55.672C0 50.0853 13.728 46.8087 15.3343 41.7655C16.9406 36.7223 7.86795 25.6696 10.9765 21.3662C14.085 17.0629 27.1288 22.4685 31.4569 19.2674C35.785 16.0663 34.5952 1.84272 39.7265 0.151593C44.8577 -1.53954 52.0118 10.7212 57.5 10.7212C62.9882 10.7212 70.3059 -1.44894 75.3479 0.151593C80.3899 1.75213 79.3488 16.1116 83.6174 19.2674C87.8861 22.4232 100.945 16.9874 104.083 21.3662C107.221 25.7451 97.985 36.5562 99.6508 41.7655C101.317 46.9748 115 50.1004 115 55.672Z" fill="#FBAA19"/>
<path d="M57.502 97.2553C80.1241 97.2553 98.4629 78.6376 98.4629 55.6716C98.4629 32.7055 80.1241 14.0879 57.502 14.0879C34.8799 14.0879 16.541 32.7055 16.541 55.6716C16.541 78.6376 34.8799 97.2553 57.502 97.2553Z" fill="white"/>
<path d="M57.5006 92.2124C77.3791 92.2124 93.4939 75.8526 93.4939 55.6719C93.4939 35.4911 77.3791 19.1313 57.5006 19.1313C37.6221 19.1313 21.5073 35.4911 21.5073 55.6719C21.5073 75.8526 37.6221 92.2124 57.5006 92.2124Z" fill="#FBAA19"/>
<path d="M86.9081 62.7249C90.7423 46.2328 80.6813 29.7079 64.4363 25.8154C48.1912 21.9229 31.9138 32.1369 28.0796 48.629C24.2454 65.121 34.3064 81.646 50.5515 85.5384C66.7965 89.4309 83.074 79.2169 86.9081 62.7249Z" stroke="#727373" stroke-width="3" stroke-miterlimit="10" stroke-linecap="round" stroke-dasharray="12.35 12.35"/>
<path d="M52.0825 52.7901H50.1634V48.7409H46.4211V52.7901H44.502V43.3419H46.4211V47.1705H50.1634V43.3419H52.0825V52.7901Z" fill="#7C7C7C"/>
<path d="M61.3391 52.7901H59.42L55.6841 46.5735V52.7901H53.765V43.3419H55.6841L59.4264 49.5715V43.3419H61.3391V52.7901Z" fill="#7C7C7C"/>
<path d="M70.3846 51.5961C70.0392 52.0157 69.5509 52.3424 68.9197 52.576C68.2885 52.8052 67.5891 52.9199 66.8214 52.9199C66.0154 52.9199 65.3075 52.7425 64.6976 52.3878C64.092 52.0287 63.6229 51.5096 63.2902 50.8304C62.9619 50.1512 62.7934 49.353 62.7849 48.4359V47.7935C62.7849 46.8504 62.9405 46.0349 63.2519 45.3471C63.5674 44.6549 64.0195 44.1271 64.608 43.7637C65.2008 43.396 65.8939 43.2122 66.6871 43.2122C67.7917 43.2122 68.6553 43.4804 69.2779 44.0168C69.9006 44.5489 70.2695 45.3254 70.3846 46.3464H68.5167C68.4314 45.8056 68.2416 45.4098 67.9473 45.1589C67.6573 44.908 67.2564 44.7825 66.7447 44.7825C66.0922 44.7825 65.5953 45.0313 65.2541 45.5288C64.913 46.0263 64.7402 46.766 64.736 47.7481V48.3515C64.736 49.3422 64.9215 50.0906 65.2925 50.5968C65.6636 51.1029 66.2073 51.356 66.9238 51.356C67.6445 51.356 68.1584 51.2003 68.4655 50.8888V49.26H66.7191V47.8259H70.3846V51.5961Z" fill="#7C7C7C"/>
<path d="M47.1473 65.0779C47.1473 64.7101 47.0193 64.4289 46.7635 64.2343C46.5076 64.0353 46.047 63.8276 45.3817 63.6113C44.7164 63.3907 44.1897 63.1744 43.8016 62.9624C42.7439 62.3827 42.2151 61.6019 42.2151 60.6198C42.2151 60.1094 42.3559 59.6551 42.6373 59.2571C42.9231 58.8548 43.3303 58.5412 43.8592 58.3162C44.3923 58.0912 44.9893 57.9788 45.6504 57.9788C46.3157 57.9788 46.9085 58.1021 47.4288 58.3486C47.9491 58.5909 48.3521 58.9348 48.6378 59.3804C48.9278 59.826 49.0728 60.3321 49.0728 60.8989H47.1537C47.1537 60.4663 47.0193 60.131 46.7507 59.893C46.482 59.6508 46.1046 59.5297 45.6184 59.5297C45.1493 59.5297 44.7846 59.6313 44.5245 59.8346C44.2643 60.0336 44.1342 60.2975 44.1342 60.6263C44.1342 60.9335 44.2856 61.1909 44.5884 61.3985C44.8955 61.6062 45.3454 61.8009 45.9382 61.9825C47.03 62.3157 47.8254 62.7288 48.3243 63.222C48.8233 63.7151 49.0728 64.3294 49.0728 65.0649C49.0728 65.8825 48.7679 66.5249 48.158 66.9921C47.5482 67.455 46.7272 67.6865 45.6951 67.6865C44.9787 67.6865 44.3262 67.5545 43.7376 67.2906C43.1491 67.0224 42.6992 66.6569 42.3878 66.194C42.0808 65.7311 41.9272 65.1947 41.9272 64.5847H43.8528C43.8528 65.6273 44.4669 66.1486 45.6951 66.1486C46.1515 66.1486 46.5076 66.0555 46.7635 65.8695C47.0193 65.6792 47.1473 65.4153 47.1473 65.0779Z" fill="#7C7C7C"/>
<path d="M55.9817 63.4621H52.2969V65.9928H56.6214V67.5567H50.3778V58.1085H56.6086V59.6854H52.2969V61.9371H55.9817V63.4621Z" fill="#7C7C7C"/>
<path d="M63.0057 65.61H59.6408L59.0011 67.5567H56.9604L60.4277 58.1085H62.2061L65.6925 67.5567H63.6518L63.0057 65.61ZM60.159 64.0331H62.4875L61.3169 60.4965L60.159 64.0331Z" fill="#7C7C7C"/>
<path d="M68.4816 65.9928H72.5566V67.5567H66.5625V58.1085H68.4816V65.9928Z" fill="#7C7C7C"/>
</g>
<defs>
<clipPath id="clip0">
<rect width="115" height="158" fill="white"/>
</clipPath>
</defs>
</svg>
