<?xml version="1.0" encoding="UTF-8"?>
<svg width="73px" height="52px" viewBox="0 0 73 52" version="1.1" xmlns="http://www.w3.org/2000/svg" xmlns:xlink="http://www.w3.org/1999/xlink">
    <!-- Generator: Sketch 51.3 (57544) - http://www.bohemiancoding.com/sketch -->
    <title>Group 5</title>
    <desc>Created with Sketch.</desc>
    <defs>
        <path d="M23.2628997,33.9749577 L40.1121982,18.8037812 C43.4914775,15.1669519 48.3166703,12.8914994 53.6734624,12.8914994 C63.8938463,12.8914994 72.1791045,21.1745936 72.1791045,31.392308 C72.1791045,41.6100224 63.8938463,49.8931166 53.6734624,49.8931166 C46.0874689,49.8931166 39.5675797,45.3297736 36.7104756,38.7990901 L25.2712538,49.0990116 C24.5984133,49.8618404 23.7305912,50.4720085 22.7074826,50.8443895 C19.4422777,52.0328269 15.8318873,50.3492742 14.6434499,47.0840693 L7.21610295,26.6776013 C6.02766555,23.4123964 7.71121826,19.8020059 10.9764232,18.6135685 C14.2416281,17.4251311 17.8520186,19.1086839 19.040456,22.3738888 L23.2628997,33.9749577 Z M53.8821609,25.5056871 C50.5149596,25.5056871 47.7853036,28.2353431 47.7853036,31.6025445 C47.7853036,34.9697458 50.5149596,37.6994018 53.8821609,37.6994018 L53.8853466,37.6994018 C57.252548,37.6994018 59.982204,34.9697458 59.982204,31.6025445 C59.982204,28.2353431 57.252548,25.5056871 53.8853466,25.5056871 L53.8821609,25.5056871 Z M6.28996351,0 L6.29325013,-8.8817842e-16 C9.76710105,-1.52631448e-15 12.5832136,2.81611259 12.5832136,6.28996351 C12.5832136,9.76381443 9.76710105,12.579927 6.29325013,12.579927 L6.28996351,12.579927 C2.81611259,12.579927 4.25424041e-16,9.76381443 0,6.28996351 C-4.25424041e-16,2.81611259 2.81611259,6.38136062e-16 6.28996351,0 Z" id="path-1"></path>
    </defs>
    <g id="CEO/MD-Card" stroke="none" stroke-width="1" fill="none" fill-rule="evenodd">
        <g id="A4" transform="translate(-314.000000, -107.000000)">
            <g id="Group-5" transform="translate(314.000000, 107.000000)">
                <mask id="mask-2" fill="white">
                    <use xlink:href="#path-1"></use>
                </mask>
                <use id="Mask-Copy" fill="#000000" xlink:href="#path-1"></use>
                <g id="Group-4" mask="url(#mask-2)">
                    <g transform="translate(33.761311, 44.423423) rotate(14.000000) translate(-33.761311, -44.423423) translate(-13.238689, -39.576577)">
                        <rect id="Rectangle" fill="#00B4CD" x="0" y="0" width="18.7703926" height="167.083426"></rect>
                        <polygon id="Rectangle-Copy" fill="#0079D4" points="18.7703926 -1.13686838e-13 37.5407853 -1.13686838e-13 37.5407853 167.083426 18.7703926 167.083426"></polygon>
                        <polygon id="Rectangle-Copy-3" fill="#A7007B" points="37.5407853 -5.68434189e-14 56.3111779 -5.68434189e-14 56.3111779 167.083426 37.5407853 167.083426"></polygon>
                        <polygon id="Rectangle-Copy-2" fill="#FE006A" points="56.3111779 -2.84217094e-14 75.0815706 -2.84217094e-14 75.0815706 167.083426 56.3111779 167.083426"></polygon>
                        <polygon id="Rectangle-Copy-4" fill="#FF7201" points="75.0815706 -8.52651283e-14 93.8519632 -8.52651283e-14 93.8519632 167.083426 75.0815706 167.083426"></polygon>
                    </g>
                </g>
            </g>
        </g>
    </g>
</svg>